<?xml version="1.0" standalone="no"?>
<!DOCTYPE svg PUBLIC "-//W3C//DTD SVG 20010904//EN"
 "http://www.w3.org/TR/2001/REC-SVG-20010904/DTD/svg10.dtd">
<svg version="1.0" xmlns="http://www.w3.org/2000/svg"
 width="960.000000pt" height="960.000000pt" viewBox="0 0 960.000000 960.000000"
 preserveAspectRatio="xMidYMid meet">
<metadata>
Created by potrace 1.11, written by Peter Selinger 2001-2013
</metadata>
<g transform="translate(0.000000,960.000000) scale(0.100000,-0.100000)"
fill="#000000" stroke="none">
<path d="M1700 5505 l0 -3195 278 2 277 3 3 2913 2 2912 1285 0 1284 0 113
142 c116 147 278 349 304 381 7 9 14 22 14 27 0 7 -614 10 -1780 10 l-1780 0
0 -3195z"/>
<path d="M5637 8303 c-174 -219 -429 -540 -566 -713 -138 -173 -360 -452 -493
-620 -470 -590 -535 -671 -733 -921 -110 -139 -251 -315 -312 -392 -62 -77
-113 -145 -113 -151 0 -6 104 -142 231 -301 126 -160 337 -424 467 -589 130
-164 242 -304 247 -310 6 -6 62 -76 125 -156 63 -80 117 -147 120 -150 3 -3
35 -43 71 -90 37 -47 135 -170 218 -275 180 -225 164 -205 223 -280 27 -33 75
-94 108 -135 34 -41 82 -102 107 -135 171 -219 598 -752 611 -762 12 -10 100
-13 360 -13 295 0 343 2 340 15 -2 8 -113 152 -248 322 -308 386 -715 897
-957 1203 -103 129 -311 390 -462 580 -151 190 -361 453 -466 585 -105 132
-235 295 -289 363 -53 67 -96 127 -94 132 2 5 147 189 323 410 432 542 865
1085 1043 1310 81 102 152 192 159 200 7 8 149 186 315 396 329 414 478 601
605 759 45 57 79 106 76 109 -4 3 -162 6 -353 6 l-346 0 -317 -397z"/>
<path d="M7073 8328 c-163 -205 -349 -438 -412 -518 -64 -80 -129 -163 -146
-184 -16 -21 -66 -84 -111 -140 -45 -56 -206 -258 -359 -451 -154 -192 -358
-449 -454 -570 -96 -121 -254 -319 -350 -440 -96 -121 -228 -287 -293 -368
-65 -81 -118 -149 -118 -152 0 -2 64 -84 143 -182 78 -98 156 -196 172 -217
17 -21 138 -174 270 -340 509 -639 756 -950 944 -1186 107 -135 254 -319 326
-410 72 -91 256 -321 408 -512 l277 -348 350 0 c205 0 350 4 350 9 0 5 -109
146 -242 313 -607 761 -931 1168 -973 1222 -16 21 -68 86 -115 145 -47 58
-171 214 -276 346 -105 132 -352 442 -549 689 -197 248 -360 457 -362 465 -2
9 33 62 80 121 292 367 537 675 696 875 100 127 204 257 231 290 27 33 102
128 167 210 255 322 612 770 1081 1358 139 175 256 325 259 333 4 12 -44 14
-346 14 l-351 0 -297 -372z"/>
<path d="M2802 4958 l3 -2643 275 0 275 0 3 2363 2 2362 298 0 297 0 85 108
c46 59 144 182 217 273 73 92 133 170 133 173 0 3 -358 6 -795 6 l-795 0 2
-2642z"/>
<path d="M3097 1950 c-137 -35 -236 -158 -256 -319 -21 -165 34 -322 140 -400
67 -49 127 -64 233 -59 107 5 164 28 227 91 38 38 89 122 89 147 0 5 -18 10
-40 10 -36 0 -41 -3 -54 -33 -68 -164 -320 -203 -438 -68 -63 72 -91 184 -76
307 14 118 67 196 163 240 94 44 204 29 282 -40 44 -39 93 -122 93 -158 0 -14
9 -18 40 -18 48 0 50 12 19 94 -26 71 -93 144 -163 180 -45 23 -72 29 -138 32
-46 2 -100 -1 -121 -6z"/>
<path d="M4589 1947 c-25 -7 -66 -25 -91 -40 -227 -133 -238 -526 -18 -676 74
-51 128 -64 238 -59 103 5 162 25 230 82 37 32 89 112 103 158 63 218 -16 435
-190 514 -67 31 -200 41 -272 21z m179 -181 c68 -35 97 -99 96 -211 0 -61 -6
-90 -22 -121 -52 -101 -188 -121 -261 -39 -40 46 -54 103 -49 197 7 124 62
187 166 188 24 0 55 -6 70 -14z"/>
<path d="M5420 1951 c-108 -23 -195 -93 -247 -199 -37 -74 -38 -78 -38 -186 1
-137 23 -200 96 -281 72 -78 139 -108 255 -113 150 -7 250 36 317 137 26 37
57 124 57 159 0 9 -28 12 -105 12 -100 0 -105 -1 -105 -21 0 -12 -9 -36 -20
-54 -46 -75 -174 -82 -240 -13 -39 41 -55 89 -54 173 0 131 65 215 166 215 69
0 113 -23 135 -71 l18 -38 93 -1 c50 0 95 0 100 0 16 2 1 74 -25 122 -33 61
-69 92 -149 130 -65 31 -184 44 -254 29z"/>
<path d="M1752 1942 l-32 -3 2 -377 3 -377 38 -3 37 -3 0 345 0 346 183 2 182
3 3 32 3 32 -193 3 c-106 2 -208 2 -226 0z"/>
<path d="M2250 1563 l0 -383 265 0 265 0 0 35 0 35 -225 0 -225 0 0 145 0 145
210 0 210 0 0 35 0 35 -210 0 -210 0 0 130 0 130 223 2 222 3 0 33 0 32 -263
3 -262 2 0 -382z"/>
<path d="M3614 1941 c-2 -2 -4 -69 -4 -147 l0 -143 96 -3 95 -3 2 -110 1 -110
-97 -3 -97 -3 0 -109 c0 -61 -1 -113 -2 -117 -2 -5 43 -9 100 -11 l102 -3 0
119 0 118 41 39 c23 22 43 36 45 30 2 -5 46 -75 98 -155 l94 -145 126 -3 c69
-1 126 0 126 2 0 3 -70 107 -156 231 l-156 226 38 42 c32 35 121 129 217 230
10 10 17 21 14 23 -3 3 -58 6 -123 7 l-117 2 -119 -137 c-66 -76 -121 -138
-124 -138 -3 0 -5 17 -4 38 1 20 2 82 1 137 l-1 100 -96 0 c-53 0 -98 -2 -100
-4z"/>
<path d="M7101 1940 c-8 -6 -281 -733 -281 -749 0 -7 34 -11 103 -11 l104 0
13 43 c6 23 19 54 26 70 l15 27 123 0 124 0 25 -67 25 -68 103 0 c87 0 103 2
101 15 -5 19 -273 734 -277 739 -6 5 -196 7 -204 1z m175 -468 c-2 -1 -38 -2
-79 0 l-76 3 35 105 c19 58 37 112 40 120 4 9 23 -36 45 -105 21 -66 36 -121
35 -123z"/>
<path d="M7934 1941 c-2 -2 -4 -124 -4 -270 0 -146 -3 -276 -6 -288 -8 -29
-53 -47 -87 -34 -34 13 -47 39 -47 95 l0 46 -95 0 -95 0 0 -53 c0 -119 57
-219 145 -253 34 -13 67 -15 142 -12 134 6 182 32 227 128 20 43 21 60 21 343
l0 299 -98 1 c-54 1 -101 0 -103 -2z"/>
<path d="M5912 1563 l3 -378 98 -3 97 -3 1 268 0 268 65 -230 c35 -126 69
-247 74 -267 l11 -38 78 0 77 0 38 138 c21 75 54 193 73 262 19 69 36 130 38
135 2 6 4 -113 4 -262 l1 -273 94 0 94 0 3 33 c2 17 3 188 1 380 l-3 347 -147
0 -147 0 -59 -229 c-32 -126 -62 -234 -66 -241 -4 -7 -10 2 -14 25 -4 20 -31
127 -60 238 l-53 202 -152 3 -151 3 2 -378z"/>
<path d="M3190 1538 l0 -48 265 0 c146 0 268 0 273 0 4 0 7 20 7 45 l0 45
-273 2 -272 3 0 -47z"/>
<path d="M1732 755 c4 -144 22 -155 26 -16 l3 100 47 3 c68 4 58 22 -16 26
l-63 3 3 -116z"/>
<path d="M2070 756 c0 -125 0 -126 65 -126 18 0 40 3 49 6 32 12 15 24 -34 24
l-50 0 0 40 0 40 40 0 c29 0 40 4 40 15 0 11 -11 15 -40 15 -39 0 -40 1 -40
35 0 35 0 35 45 35 33 0 45 4 45 15 0 12 -13 15 -60 15 l-60 0 0 -114z"/>
<path d="M2444 847 c-22 -19 -28 -34 -31 -78 -6 -68 8 -104 48 -124 40 -21 88
-13 120 21 20 22 24 36 24 91 0 59 -3 67 -28 89 -38 32 -96 33 -133 1z m116
-22 c17 -21 23 -85 11 -118 -21 -54 -97 -62 -119 -12 -19 41 -15 102 8 125 24
24 82 27 100 5z"/>
<path d="M2866 838 c-23 -137 -27 -154 -46 -170 -23 -19 -29 -88 -7 -88 8 0
13 11 13 26 -1 25 0 25 81 27 80 2 82 1 85 -22 5 -44 28 -37 28 8 0 30 -4 41
-15 41 -12 0 -15 18 -15 105 l0 105 -60 0 c-59 0 -59 0 -64 -32z m94 -88 l0
-90 -50 0 c-27 0 -50 1 -50 3 0 1 7 27 15 57 8 30 15 70 15 88 0 30 2 32 35
32 l35 0 0 -90z"/>
<path d="M3240 757 c0 -126 0 -127 65 -127 18 0 40 3 49 6 32 12 15 24 -34 24
l-50 0 0 40 0 40 40 0 c29 0 40 4 40 15 0 11 -11 15 -40 15 -39 0 -40 1 -40
34 0 34 1 35 48 38 68 4 58 22 -15 26 l-63 3 0 -114z"/>
<path d="M3570 855 c0 -10 11 -15 35 -15 l34 0 3 -100 c4 -132 22 -132 26 0
l3 100 34 0 c24 0 35 5 35 15 0 12 -16 15 -85 15 -69 0 -85 -3 -85 -15z"/>
<path d="M3969 842 c-28 -25 -32 -35 -33 -84 -1 -94 50 -141 127 -118 22 6 37
17 37 26 0 11 -6 14 -16 10 -66 -25 -98 -14 -115 43 -10 33 -9 45 7 78 16 31
25 39 53 41 18 2 38 -1 44 -7 15 -15 27 -14 27 4 0 19 -31 35 -69 35 -20 0
-42 -10 -62 -28z"/>
<path d="M4322 755 c2 -68 7 -115 13 -115 6 0 11 22 13 50 2 39 7 50 20 50 27
0 39 -12 57 -58 10 -23 23 -42 31 -42 8 0 14 3 14 6 0 17 -44 104 -53 104 -5
0 -3 8 5 18 14 16 38 75 38 93 0 22 -29 6 -35 -18 -10 -43 -33 -73 -55 -73
-17 0 -20 7 -20 50 0 38 -4 50 -15 50 -13 0 -15 -17 -13 -115z"/>
<path d="M4712 758 c-22 -62 -38 -116 -35 -121 7 -12 30 11 37 38 6 22 12 25
52 25 42 0 46 -2 60 -36 11 -26 18 -34 26 -26 15 15 -61 226 -83 230 -11 2
-26 -26 -57 -110z m68 37 c25 -65 23 -70 -14 -71 l-34 -1 14 46 c8 25 14 47
14 49 0 11 12 -3 20 -23z"/>
<path d="M5362 758 c-22 -62 -38 -116 -35 -121 7 -12 30 11 37 38 6 22 12 25
55 25 47 0 50 -2 56 -30 7 -32 19 -45 34 -36 14 9 -72 230 -90 234 -11 2 -26
-26 -57 -110z m73 26 c22 -53 20 -62 -18 -61 l-34 1 15 48 c9 26 17 48 19 48
1 0 10 -16 18 -36z"/>
<path d="M5734 857 c-9 -25 1 -222 11 -220 6 2 11 47 13 103 l3 100 49 0 c38
0 50 4 50 15 0 20 -118 22 -126 2z"/>
<path d="M6070 757 c0 -96 3 -116 16 -121 20 -8 78 -8 98 0 32 12 15 24 -34
24 l-50 0 0 40 0 40 40 0 c29 0 40 4 40 15 0 11 -11 15 -40 15 -39 0 -40 1
-40 34 0 34 1 35 48 38 68 4 58 22 -15 26 l-63 3 0 -114z"/>
<path d="M6432 755 c2 -68 7 -115 13 -115 6 0 11 22 13 50 l3 50 49 0 49 0 3
-52 c2 -29 8 -53 13 -53 6 0 11 48 13 118 2 100 0 117 -13 117 -11 0 -15 -12
-15 -50 l0 -50 -50 0 -50 0 0 50 c0 38 -4 50 -15 50 -13 0 -15 -17 -13 -115z"/>
<path d="M6835 858 c-3 -8 -4 -61 -3 -119 l3 -104 83 -3 c80 -3 82 -3 82 -27
0 -16 6 -25 15 -25 11 0 15 11 15 40 0 28 -4 40 -15 40 -11 0 -15 20 -17 103
-2 83 -6 102 -18 102 -17 0 -17 -1 -19 -118 l-1 -88 -47 3 -48 3 -1 100 c-1
62 -6 101 -13 103 -6 2 -13 -3 -16 -10z"/>
<path d="M7240 755 c0 -143 9 -147 84 -33 l55 82 3 -85 c4 -127 23 -104 26 34
2 75 -1 117 -8 117 -5 0 -36 -39 -67 -87 l-58 -86 -3 86 c-2 68 -6 87 -17 87
-12 0 -15 -21 -15 -115z"/>
<path d="M7678 768 c-3 -95 -5 -103 -23 -104 -11 -1 -24 -2 -29 -3 -15 -2 16
-31 34 -31 39 0 50 31 50 138 0 83 -3 102 -15 102 -11 0 -15 -20 -17 -102z"/>
<path d="M7961 759 c-22 -61 -38 -116 -35 -121 8 -13 31 9 38 37 6 22 12 25
52 25 42 0 46 -2 60 -36 11 -27 18 -34 26 -26 15 15 -62 226 -84 230 -11 2
-26 -27 -57 -109z m69 36 c25 -66 24 -72 -14 -73 -20 -1 -36 0 -36 2 0 9 33
96 36 96 3 0 9 -11 14 -25z"/>
</g>
</svg>
